<?xml version="1.0" encoding="UTF-8" standalone="no"?>
<!DOCTYPE svg PUBLIC "-//W3C//DTD SVG 1.1//EN"
 "http://www.w3.org/Graphics/SVG/1.1/DTD/svg11.dtd">
<!-- Generated by graphviz version 2.38.0 (20140413.2041)
 -->
<!-- Title: models_diagram Pages: 1 -->
<svg width="918pt" height="303pt"
 viewBox="0.00 0.00 918.00 303.00" xmlns="http://www.w3.org/2000/svg" xmlns:xlink="http://www.w3.org/1999/xlink">
<g id="graph0" class="graph" transform="scale(1 1) rotate(0) translate(4 299)">
<title>models_diagram</title>
<polygon fill="none" stroke="none" points="-4,4 -4,-299 914,-299 914,4 -4,4"/>
<!-- _diagram_info -->
<g id="node1" class="node"><title>_diagram_info</title>
<text text-anchor="start" x="8" y="-266.1" font-family="Times,serif" font-size="13.00">Models diagram</text>
<text text-anchor="start" x="8" y="-252.1" font-family="Times,serif" font-size="13.00">Date: Jul 19 2017 &#45; 20:02</text>
<text text-anchor="start" x="8" y="-238.1" font-family="Times,serif" font-size="13.00">Migration version: 20170719234825</text>
<text text-anchor="start" x="8" y="-224.1" font-family="Times,serif" font-size="13.00">Generated by RailRoady 1.5.3</text>
<text text-anchor="start" x="8" y="-210.1" font-family="Times,serif" font-size="13.00">http://railroady.prestonlee.com</text>
</g>
<!-- ApplicationRecord -->
<g id="node2" class="node"><title>ApplicationRecord</title>
<ellipse fill="none" stroke="black" cx="309" cy="-241.5" rx="77.1866" ry="18"/>
<text text-anchor="middle" x="309" y="-237.8" font-family="Times,serif" font-size="14.00">ApplicationRecord</text>
</g>
<!-- Item -->
<g id="node3" class="node"><title>Item</title>
<path fill="none" stroke="black" d="M547,-0.5C547,-0.5 767,-0.5 767,-0.5 773,-0.5 779,-6.5 779,-12.5 779,-12.5 779,-139.5 779,-139.5 779,-145.5 773,-151.5 767,-151.5 767,-151.5 547,-151.5 547,-151.5 541,-151.5 535,-145.5 535,-139.5 535,-139.5 535,-12.5 535,-12.5 535,-6.5 541,-0.5 547,-0.5"/>
<text text-anchor="middle" x="657" y="-136.3" font-family="Times,serif" font-size="14.00">Item</text>
<polyline fill="none" stroke="black" points="535,-128.5 779,-128.5 "/>
<text text-anchor="start" x="543" y="-113.3" font-family="Times,serif" font-size="14.00">id :integer</text>
<text text-anchor="start" x="543" y="-98.3" font-family="Times,serif" font-size="14.00">number :integer</text>
<text text-anchor="start" x="543" y="-83.3" font-family="Times,serif" font-size="14.00">size :integer</text>
<text text-anchor="start" x="543" y="-68.3" font-family="Times,serif" font-size="14.00">description :character varying</text>
<text text-anchor="start" x="543" y="-53.3" font-family="Times,serif" font-size="14.00">category_id :integer</text>
<text text-anchor="start" x="543" y="-38.3" font-family="Times,serif" font-size="14.00">created_at :timestamp without time zone</text>
<text text-anchor="start" x="543" y="-23.3" font-family="Times,serif" font-size="14.00">updated_at :timestamp without time zone</text>
<text text-anchor="start" x="543" y="-8.3" font-family="Times,serif" font-size="14.00">user_id :integer</text>
</g>
<!-- User -->
<g id="node4" class="node"><title>User</title>
<path fill="none" stroke="black" d="M416,-188.5C416,-188.5 636,-188.5 636,-188.5 642,-188.5 648,-194.5 648,-200.5 648,-200.5 648,-282.5 648,-282.5 648,-288.5 642,-294.5 636,-294.5 636,-294.5 416,-294.5 416,-294.5 410,-294.5 404,-288.5 404,-282.5 404,-282.5 404,-200.5 404,-200.5 404,-194.5 410,-188.5 416,-188.5"/>
<text text-anchor="middle" x="526" y="-279.3" font-family="Times,serif" font-size="14.00">User</text>
<polyline fill="none" stroke="black" points="404,-271.5 648,-271.5 "/>
<text text-anchor="start" x="412" y="-256.3" font-family="Times,serif" font-size="14.00">id :integer</text>
<text text-anchor="start" x="412" y="-241.3" font-family="Times,serif" font-size="14.00">name :character varying</text>
<text text-anchor="start" x="412" y="-226.3" font-family="Times,serif" font-size="14.00">email :character varying</text>
<text text-anchor="start" x="412" y="-211.3" font-family="Times,serif" font-size="14.00">created_at :timestamp without time zone</text>
<text text-anchor="start" x="412" y="-196.3" font-family="Times,serif" font-size="14.00">updated_at :timestamp without time zone</text>
</g>
<!-- User&#45;&gt;Item -->
<g id="edge1" class="edge"><title>User&#45;&gt;Item</title>
<path fill="none" stroke="#4b04bb" d="M572.922,-181.937C578.704,-174.721 584.697,-167.241 590.698,-159.751"/>
<ellipse fill="none" stroke="#4b04bb" cx="570.311" cy="-185.196" rx="4.00002" ry="4.00002"/>
<polygon fill="#4b04bb" stroke="#4b04bb" points="590.952,-159.434 600.717,-154.444 594.078,-155.532 597.205,-151.63 597.205,-151.63 597.205,-151.63 594.078,-155.532 593.693,-148.816 590.952,-159.434 590.952,-159.434"/>
</g>
<!-- Category -->
<g id="node5" class="node"><title>Category</title>
<path fill="none" stroke="black" d="M678,-196C678,-196 898,-196 898,-196 904,-196 910,-202 910,-208 910,-208 910,-275 910,-275 910,-281 904,-287 898,-287 898,-287 678,-287 678,-287 672,-287 666,-281 666,-275 666,-275 666,-208 666,-208 666,-202 672,-196 678,-196"/>
<text text-anchor="middle" x="788" y="-271.8" font-family="Times,serif" font-size="14.00">Category</text>
<polyline fill="none" stroke="black" points="666,-264 910,-264 "/>
<text text-anchor="start" x="674" y="-248.8" font-family="Times,serif" font-size="14.00">id :integer</text>
<text text-anchor="start" x="674" y="-233.8" font-family="Times,serif" font-size="14.00">name :character varying</text>
<text text-anchor="start" x="674" y="-218.8" font-family="Times,serif" font-size="14.00">created_at :timestamp without time zone</text>
<text text-anchor="start" x="674" y="-203.8" font-family="Times,serif" font-size="14.00">updated_at :timestamp without time zone</text>
</g>
<!-- Category&#45;&gt;Item -->
<g id="edge2" class="edge"><title>Category&#45;&gt;Item</title>
<path fill="none" stroke="#0eeb4a" d="M746.994,-189.321C739.468,-179.928 731.438,-169.906 723.39,-159.861"/>
<ellipse fill="none" stroke="#0eeb4a" cx="749.703" cy="-192.701" rx="4.00002" ry="4.00002"/>
<polygon fill="#0eeb4a" stroke="#0eeb4a" points="723.194,-159.616 720.453,-148.998 720.067,-155.714 716.941,-151.812 716.941,-151.812 716.941,-151.812 720.067,-155.714 713.429,-154.626 723.194,-159.616 723.194,-159.616"/>
</g>
</g>
</svg>
